<svg width="24" height="24" viewBox="0 0 24 24" fill="none" xmlns="http://www.w3.org/2000/svg">
<path fill-rule="evenodd" clip-rule="evenodd" d="M15.5199 17.6509L21.4376 23.5612C22.0234 24.1465 22.975 24.1462 23.5608 23.5609C24.1466 22.9754 24.1463 22.0246 23.5605 21.4394L17.6469 15.5332C18.8365 13.9168 19.5396 11.9202 19.5396 9.76108C19.5396 4.37373 15.1619 0 9.76996 0C4.37771 0 0 4.37373 0 9.76108C0 15.1481 4.37771 19.5219 9.76996 19.5219C11.9188 19.5219 13.9062 18.8275 15.5199 17.6509ZM9.76996 3.00012C13.5048 3.00012 16.5371 6.02963 16.5371 9.76108C16.5371 13.4925 13.5048 16.522 9.76996 16.522C6.03512 16.522 3.00285 13.4925 3.00285 9.76108C3.00285 6.02963 6.03512 3.00012 9.76996 3.00012Z" fill="#909195"/>
</svg>
