<svg width="15" height="14" viewBox="0 0 15 14" fill="none" xmlns="http://www.w3.org/2000/svg">
<path d="M4.39174 2.0195H10.5182C10.5748 2.0195 10.6207 1.97699 10.6207 1.92434V1.63911C10.6207 1.58646 10.5748 1.54395 10.5182 1.54395H4.39174C4.3354 1.54395 4.28943 1.58646 4.28943 1.63911V1.92434C4.28943 1.97699 4.3354 2.0195 4.39174 2.0195Z" fill="#333333"/>
<mask id="mask0_727_177" style="mask-type:luminance" maskUnits="userSpaceOnUse" x="0" y="1" width="15" height="13">
<path d="M0 1.54297H15V13.4999H0V1.54297Z" fill="white"/>
</mask>
<g mask="url(#mask0_727_177)">
<path d="M13.4051 13.0246H1.59518C0.997024 13.0246 0.51233 12.5745 0.51233 12.0193V5.3274H14.4879V12.0193C14.4879 12.5745 14.0032 13.0246 13.4051 13.0246ZM13.4051 1.54419H12.2598C12.2032 1.54419 12.1572 1.5867 12.1572 1.63935V1.92459C12.1572 1.97699 12.2032 2.01975 12.2598 2.01975H13.4051C14.0024 2.01975 14.4879 2.47034 14.4879 3.02598V4.85184H0.51233V3.02598C0.51233 2.47034 0.997821 2.01975 1.59518 2.01975H2.6504C2.707 2.01975 2.75271 1.97699 2.75271 1.92459V1.63935C2.75271 1.5867 2.707 1.54419 2.6504 1.54419H1.59518C0.716146 1.54419 0 2.20883 0 3.02598V12.0193C0 12.8338 0.71774 13.5001 1.59518 13.5001H13.4051C14.2825 13.5001 15.0003 12.8338 15.0003 12.0193V3.02598C15.0003 2.20883 14.2841 1.54419 13.4051 1.54419Z" fill="#333333"/>
</g>
<path d="M3.52116 3.17709C3.7752 3.17709 3.98194 2.98578 3.98194 2.74899V1.04944C3.98194 0.812649 3.7752 0.621338 3.52116 0.621338C3.26606 0.621338 3.06012 0.812649 3.06012 1.04944V2.74899C3.06012 2.98578 3.26606 3.17709 3.52116 3.17709Z" fill="#333333"/>
<mask id="mask1_727_177" style="mask-type:luminance" maskUnits="userSpaceOnUse" x="10" y="0" width="2" height="4">
<path d="M10.8873 0.5H11.9077V3.06317H10.8873V0.5Z" fill="white"/>
</mask>
<g mask="url(#mask1_727_177)">
<path d="M11.389 3.05992C11.6431 3.05992 11.8501 2.86786 11.8501 2.63181V0.931519C11.8501 0.69547 11.6431 0.503418 11.389 0.503418C11.1339 0.503418 10.928 0.69547 10.928 0.931519V2.63181C10.928 2.86786 11.1339 3.05992 11.389 3.05992Z" fill="#333333"/>
</g>
</svg>
