<svg width="422" height="223" viewBox="0 0 422 223" fill="none" xmlns="http://www.w3.org/2000/svg">
<path d="M49.1624 45.0674H27.4808C25.7141 30.7167 4.91411 31.7243 3.78118 23.9179C3.27843 20.5202 4.66274 16.9953 9.83176 16.9953C21.0514 16.9953 28.8651 32.2264 48.4047 32.2264C64.7933 32.2264 70.589 14.8563 68.6984 1.00763H65.9263C65.9263 6.5478 63.5329 10.0727 57.9851 10.0727C46.2628 10.0727 39.582 0 23.6996 0C11.2196 0 0 5.7912 0 27.4428V86.3553H27.6047V48.0867H49.1624V45.0674Z" fill="#BF8949"/>
<path d="M117.23 17.3735C102.735 17.3735 94.7903 26.4351 86.8491 26.4351C82.6891 26.4351 81.3048 22.9102 81.3048 18.2539H78.0264C75.7569 39.1489 80.926 45.6967 91.6393 45.6967C108.028 45.6967 102.229 23.6668 110.549 21.2732C118.49 19.0105 122.399 24.5471 119.371 47.3336C116.097 46.9553 112.567 46.828 108.658 46.828C85.086 46.828 73.615 53.7506 73.615 66.8427C73.615 79.811 83.8256 86.8573 106.261 86.8573C116.851 86.8573 120.129 83.4596 120.887 78.6761C130.719 94.2854 154.291 84.5946 163.113 72.8849L161.223 70.8732C157.19 74.9001 153.03 75.7805 149.752 72.8849C144.834 68.6069 145.464 61.557 147.104 51.4879C150.255 31.848 138.911 17.3735 117.23 17.3735ZM117.608 64.3254C117.608 72.0045 118.617 80.6913 115.59 82.0737C110.676 84.4673 105.256 80.8151 100.717 69.36C97.1871 60.6767 97.8173 53.6269 102.735 51.2333C106.261 49.4726 112.439 49.3453 118.993 50.2292V50.7313C118.239 55.3875 117.732 60.0474 117.608 64.3254Z" fill="#BF8949"/>
<path d="M222.736 64.5764C211.013 80.9424 196.264 83.4597 180.381 58.2831C169.668 41.4151 163.996 27.57 171.81 23.9178C183.911 18.2539 180.381 49.4726 201.56 49.4726C217.945 49.4726 222.484 32.099 220.594 18.2539H217.821C217.821 23.9178 216.561 27.3154 211.895 27.3154C205.593 27.3154 199.794 17.3735 188.071 17.3735C168.28 17.3735 152.146 31.7242 152.146 52.2409C152.146 70.2438 163.49 83.3324 181.139 86.4825C178.87 89.7529 176.349 93.2778 176.349 100.2H178.997C180.003 99.069 182.272 97.6831 184.29 97.4321C188.45 97.0538 191.474 99.069 194.249 103.725C198.912 111.532 198.409 118.203 189.583 118.076C182.651 117.952 173.828 112.79 173.828 112.79L172.692 114.806C172.692 114.806 181.266 120.721 192.359 120.721C209.374 120.721 216.31 113.798 216.31 106.37C216.31 98.9417 208.62 93.0268 192.737 93.4051C186.053 93.4051 181.39 95.6714 179.248 97.181C179.879 92.7758 182.021 89.8802 183.911 86.8573C185.802 86.9846 187.692 87.2356 189.71 87.2356C208.871 87.2356 217.191 78.9271 225.384 66.4644L222.736 64.5764Z" fill="#BF8949"/>
<path d="M269.124 17.3735C254.629 17.3735 246.685 26.4351 238.743 26.4351C234.583 26.4351 233.199 22.9102 233.199 18.2539H229.921C227.651 39.1489 232.82 45.6967 243.534 45.6967C259.922 45.6967 254.123 23.6668 262.443 21.2732C270.384 19.0105 274.293 24.5471 271.266 47.3336C267.991 46.9553 264.461 46.828 260.552 46.828C236.98 46.828 225.509 53.7506 225.509 66.8427C225.509 79.811 235.72 86.8573 258.156 86.8573C268.745 86.8573 272.023 83.4596 272.781 78.6761C282.613 94.2854 306.185 84.5946 315.008 72.8849L313.117 70.8732C309.085 74.9001 304.925 75.7805 301.646 72.8849C296.728 68.6069 297.359 61.557 298.998 51.4879C302.149 31.848 290.805 17.3735 269.124 17.3735ZM269.503 64.3254C269.503 72.0045 270.512 80.6913 267.485 82.0737C262.57 84.4673 257.15 80.8151 252.611 69.36C249.081 60.6767 249.712 53.6269 254.629 51.2333C258.156 49.4726 264.334 49.3453 270.887 50.2292V50.7313C270.133 55.3875 269.627 60.0474 269.503 64.3254Z" fill="#BF8949"/>
<path d="M375.01 17.3735C352.444 17.3735 337.319 31.7243 337.319 52.2409C337.319 72.8849 352.444 87.2356 375.01 87.2356C397.446 87.2356 412.574 72.8849 412.574 52.2409C412.574 31.7243 397.446 17.3735 375.01 17.3735ZM392.907 80.5641C385.724 85.0966 376.271 75.0274 365.554 58.2832C354.84 41.4151 349.799 28.5776 356.982 23.9178C364.169 19.3853 373.622 29.458 384.336 46.326C394.925 63.0667 400.222 76.0315 392.907 80.5641Z" fill="#BF8949"/>
<path d="M38.3216 153.138C34.4129 153.138 30.8831 154.648 27.4808 156.408V136.772H24.3298C24.3298 154.269 0 140.675 0 157.038V222.12H3.15098C3.15098 219.853 6.80824 213.309 11.3435 212.68C23.5722 210.916 28.9926 223 41.8514 223C56.222 223 75.6341 208.649 75.6341 188.005C75.6341 167.489 60.7573 153.138 38.3216 153.138ZM27.4808 168.747C27.4808 163.334 28.111 159.558 30.7557 158.173C36.5549 155.277 46.8929 168.871 50.2953 183.727C53.8251 198.202 55.0855 211.796 47.7745 216.328C42.2267 219.853 34.2855 217.965 27.4808 209.657V168.747Z" fill="#BF8949"/>
<path d="M106.516 191.406C151.893 180.326 150.888 153.138 117.608 153.138C95.0447 153.138 79.9165 167.488 79.9165 188.005C79.9165 208.649 95.0447 223 117.608 223C136.769 223 144.71 216.579 155.423 204.371C154.669 203.614 153.911 202.734 153.03 201.978C138.532 217.965 122.777 217.085 108.155 194.047C107.525 193.167 107.018 192.287 106.516 191.406ZM117.229 167.488C123.786 178.06 115.466 186.623 104.877 188.762C96.5565 174.538 93.1542 163.836 99.5836 159.682C104.374 156.663 111.936 158.929 117.229 167.488Z" fill="#BF8949"/>
<path d="M147.104 154.018V222.119H174.709V171.766C174.837 165.6 175.594 160.941 179.499 159.431C185.299 157.292 190.468 160.69 186.559 186.495C184.92 197.572 183.787 208.398 189.837 216.077C199.29 228.034 214.797 222.247 224.123 213.938L222.739 211.421C211.898 217.714 212.273 202.985 214.797 187.252C215.679 181.712 215.552 176.55 214.419 172.017C213.912 166.354 214.921 161.446 220.342 159.431C226.141 157.292 231.31 160.69 227.401 186.495C225.762 197.572 224.502 208.398 230.552 216.077C241.266 229.42 263.075 219.729 271.522 208.649L269.628 206.637C265.595 210.664 261.435 211.545 258.157 208.649C253.243 204.371 254.001 197.321 255.512 187.252C258.663 167.612 249.586 153.138 227.78 153.138C219.839 153.138 214.797 158.172 208.743 161.192C204.081 156.157 196.77 153.138 187.065 153.138C176.727 153.138 171.307 161.57 162.608 163.458C155.676 164.342 150.255 163.585 150.255 154.018H147.104Z" fill="#BF8949"/>
<mask id="mask0_775_851" style="mask-type:luminance" maskUnits="userSpaceOnUse" x="335" y="14" width="87" height="81">
<path d="M335.67 14.478H422V94.579H335.67V14.478Z" fill="white"/>
</mask>
<g mask="url(#mask0_775_851)">
<path d="M422 54.5285C422 55.8402 421.929 57.1483 421.791 58.4529C421.653 59.7576 421.448 61.0551 421.172 62.342C420.895 63.6254 420.552 64.8982 420.141 66.1533C419.731 67.4084 419.256 68.6423 418.715 69.855C418.173 71.0642 417.571 72.2486 416.902 73.4082C416.236 74.5643 415.51 75.6886 414.724 76.7776C413.939 77.8701 413.099 78.9201 412.204 79.9348C411.304 80.9495 410.356 81.9182 409.357 82.8481C408.359 83.7744 407.311 84.6548 406.22 85.4856C405.126 86.32 403.993 87.0978 402.818 87.8261C401.643 88.558 400.432 89.2297 399.182 89.8484C397.936 90.4672 396.661 91.0258 395.355 91.5278C394.048 92.0299 392.717 92.4718 391.365 92.8536C390.012 93.2319 388.642 93.5501 387.258 93.8082C385.87 94.0628 384.475 94.2572 383.066 94.3845C381.66 94.5118 380.251 94.579 378.835 94.579C377.423 94.579 376.013 94.5118 374.604 94.3845C373.199 94.2572 371.8 94.0628 370.416 93.8082C369.028 93.5501 367.658 93.2319 366.306 92.8536C364.953 92.4718 363.625 92.0299 362.319 91.5278C361.013 91.0258 359.735 90.4672 358.488 89.8484C357.242 89.2297 356.031 88.558 354.856 87.8261C353.68 87.0978 352.548 86.32 351.454 85.4856C350.36 84.6548 349.315 83.7744 348.313 82.8481C347.315 81.9182 346.366 80.9495 345.47 79.9348C344.574 78.9201 343.732 77.8701 342.946 76.7776C342.16 75.6886 341.434 74.5643 340.769 73.4082C340.103 72.2486 339.497 71.0642 338.959 69.855C338.418 68.6423 337.94 67.4084 337.533 66.1533C337.122 64.8982 336.778 63.6254 336.502 62.342C336.226 61.0551 336.017 59.7576 335.879 58.4529C335.741 57.1483 335.674 55.8402 335.674 54.5285C335.674 53.2168 335.741 51.9051 335.879 50.6005C336.017 49.2959 336.226 47.9984 336.502 46.715C336.778 45.4281 337.122 44.1553 337.533 42.9001C337.94 41.645 338.418 40.4111 338.959 39.1984C339.497 37.9893 340.103 36.8049 340.769 35.6488C341.434 34.4891 342.16 33.3684 342.946 32.2759C343.732 31.1869 344.574 30.1334 345.47 29.1187C346.366 28.104 347.315 27.1352 348.313 26.2054C349.315 25.2791 350.36 24.3987 351.454 23.5679C352.548 22.7335 353.68 21.9557 354.856 21.2274C356.031 20.499 357.242 19.8237 358.488 19.205C359.735 18.5863 361.013 18.0277 362.319 17.5257C363.625 17.0236 364.953 16.5817 366.306 16.1998C367.658 15.8215 369.028 15.5033 370.416 15.2452C371.8 14.9907 373.199 14.7962 374.604 14.6689C376.013 14.5417 377.423 14.478 378.835 14.478C380.251 14.478 381.66 14.5417 383.066 14.6689C384.475 14.7962 385.87 14.9907 387.258 15.2452C388.642 15.5033 390.012 15.8215 391.365 16.1998C392.717 16.5817 394.048 17.0236 395.355 17.5257C396.661 18.0277 397.936 18.5863 399.182 19.205C400.432 19.8237 401.643 20.499 402.818 21.2274C403.993 21.9557 405.126 22.7335 406.22 23.5679C407.311 24.3987 408.359 25.2791 409.357 26.2054C410.356 27.1352 411.304 28.104 412.204 29.1187C413.099 30.1334 413.939 31.1869 414.724 32.2759C415.51 33.3684 416.236 34.4891 416.902 35.6488C417.571 36.8049 418.173 37.9893 418.715 39.1984C419.256 40.4111 419.731 41.645 420.141 42.9001C420.552 44.1553 420.895 45.4281 421.172 46.715C421.448 47.9984 421.653 49.2959 421.791 50.6005C421.929 51.9051 422 53.2168 422 54.5285Z" fill="#BF8949"/>
</g>
</svg>
