<svg width="188" height="40" viewBox="0 0 188 40" fill="none" xmlns="http://www.w3.org/2000/svg">
<path d="M127.065 29.2494C127.343 29.2421 127.543 29.1787 127.665 29.0609C127.786 28.9402 127.855 28.7929 127.871 28.6191C127.886 28.4468 127.894 28.1419 127.894 27.706V22.6397C127.894 22.2082 127.906 21.8901 127.93 21.6853L127.065 21.7384V21.2023C128.237 21.1875 129.143 21.1787 129.783 21.1787C130.732 21.1787 131.462 21.3466 131.972 21.6794C132.481 22.0138 132.737 22.5189 132.737 23.1934C132.737 23.6294 132.567 24.03 132.226 24.3952C131.884 24.7605 131.391 25.0005 130.748 25.1139V25.1375C131.608 25.1375 132.268 25.3363 132.732 25.7325C133.194 26.1257 133.426 26.6441 133.426 27.2877C133.426 27.7678 133.302 28.1876 133.055 28.5484C132.811 28.9063 132.474 29.1787 132.043 29.3673C131.615 29.5558 131.128 29.65 130.584 29.65H127.065V29.2494ZM129.825 25.0079C130.456 24.9961 130.916 24.8194 131.207 24.4777C131.497 24.136 131.643 23.7163 131.643 23.217C131.643 22.6161 131.468 22.2008 131.119 21.9681C130.769 21.7325 130.345 21.6146 129.848 21.6146C129.589 21.6146 129.395 21.6529 129.266 21.7266C129.139 21.7973 129.054 21.9136 129.007 22.0741C128.962 22.2362 128.942 22.4733 128.942 22.787V25.0315L129.825 25.0079ZM130.184 29.1905C130.819 29.1905 131.322 29.0315 131.696 28.7134C132.068 28.3952 132.255 27.9446 132.255 27.3584C132.255 26.6751 132.064 26.189 131.684 25.8974C131.303 25.6073 130.803 25.4615 130.184 25.4615C129.739 25.4615 129.326 25.4733 128.942 25.4968V28.2244C128.942 28.6456 128.93 28.9593 128.907 29.167C129.06 29.1832 129.348 29.1905 129.772 29.1905H130.184Z" fill="#BF8949"/>
<path d="M139.849 29.2496C140.049 29.2496 140.208 29.2054 140.326 29.1141C140.447 29.0198 140.545 28.9005 140.62 28.7547C140.698 28.606 140.791 28.3821 140.897 28.0831L141.015 27.7415L143.498 20.9727H143.786L146.475 27.8416C146.565 28.0581 146.642 28.2938 146.705 28.5485C146.767 28.8004 146.795 29.0066 146.787 29.1671L147.611 29.12V29.6502H144.851V29.2496C145.322 29.2422 145.557 29.0493 145.557 28.6722C145.557 28.5191 145.518 28.3306 145.44 28.1067L145.016 26.9697L141.885 27.0463C141.763 27.3762 141.622 27.8063 141.462 28.3365C141.382 28.6001 141.282 28.877 141.162 29.1671L142.103 29.12V29.6502H139.849V29.2496ZM144.851 26.5279L143.992 24.2186L143.451 22.7341H143.427L142.921 24.1008L142.268 25.9329L142.068 26.5279H144.851Z" fill="#BF8949"/>
<path d="M154.006 29.0961L154.153 28.89C155.557 26.9503 156.934 24.8988 158.284 22.7338C158.59 22.2625 158.846 21.9017 159.055 21.6499L155.984 21.697C155.501 21.7132 155.142 21.8826 154.907 22.2036C154.674 22.5262 154.56 23.0254 154.56 23.7H154.153L154.224 21.2021H160.203V21.6263L155.878 28.2007C155.579 28.6455 155.304 28.9783 155.054 29.2022L157.984 29.1551C158.545 29.1477 158.997 28.9783 159.338 28.6484C159.679 28.3185 159.85 27.8281 159.85 27.1757H160.262L160.191 29.6499H154.006V29.0961Z" fill="#BF8949"/>
<path d="M166.793 29.2496C166.994 29.2496 167.152 29.2054 167.27 29.1141C167.391 29.0198 167.489 28.9005 167.564 28.7547C167.642 28.606 167.735 28.3821 167.841 28.0831L167.959 27.7415L170.442 20.9727H170.73L173.42 27.8416C173.509 28.0581 173.586 28.2938 173.649 28.5485C173.711 28.8004 173.739 29.0066 173.731 29.1671L174.555 29.12V29.6502H171.795V29.2496C172.266 29.2422 172.502 29.0493 172.502 28.6722C172.502 28.5191 172.462 28.3306 172.384 28.1067L171.96 26.9697L168.83 27.0463C168.707 27.3762 168.566 27.8063 168.406 28.3365C168.326 28.6001 168.226 28.877 168.106 29.1671L169.047 29.12V29.6502H166.793V29.2496ZM171.795 26.5279L170.936 24.2186L170.395 22.7341H170.371L169.865 24.1008L169.212 25.9329L169.012 26.5279H171.795Z" fill="#BF8949"/>
<path d="M181.097 29.2494C181.375 29.2421 181.576 29.1787 181.698 29.0609C181.818 28.9402 181.887 28.7958 181.904 28.6309C181.918 28.4659 181.927 28.1802 181.927 27.7708V22.5572C181.927 22.22 181.939 21.9298 181.962 21.6853L181.097 21.7384V21.2023C181.933 21.1875 182.563 21.1787 182.986 21.1787C183.37 21.1787 183.66 21.1831 183.857 21.1905C184.987 21.2067 185.814 21.3996 186.341 21.7678C186.87 22.1331 187.135 22.6618 187.135 23.3525C187.142 23.9063 186.978 24.4055 186.641 24.8488C186.302 25.2936 185.717 25.5999 184.881 25.7678C185.018 25.8709 185.142 25.9946 185.252 26.139C185.365 26.2848 185.518 26.5101 185.711 26.8164L186.529 28.1066C186.705 28.3893 186.853 28.6058 186.97 28.7546C187.088 28.9004 187.229 29.0197 187.394 29.1139C187.559 29.2053 187.76 29.2494 188 29.2494V29.65H186.482C186.266 29.4659 186.083 29.2759 185.935 29.0786C185.785 28.8827 185.611 28.6279 185.411 28.3128L184.605 27.0226L184.446 26.7693C184.316 26.5499 184.202 26.3731 184.104 26.2391C184.01 26.1022 183.906 25.9799 183.793 25.8739C183.722 25.8827 183.61 25.8857 183.457 25.8857C183.241 25.8857 183.081 25.8827 182.975 25.8739V28.2126C182.975 28.6412 182.963 28.9593 182.939 29.167L183.804 29.1198V29.65H181.097V29.2494ZM183.504 25.4262C185.143 25.4262 185.964 24.7781 185.964 23.4821C185.964 22.8739 185.787 22.4158 185.434 22.1095C185.081 21.8032 184.537 21.65 183.804 21.65C183.525 21.65 183.325 21.7074 183.204 21.8208C183.082 21.9357 183.013 22.0727 182.998 22.2332C182.982 22.3908 182.975 22.675 182.975 23.0874V25.4026C183.217 25.4188 183.394 25.4262 183.504 25.4262Z" fill="#BF8949"/>
<path d="M14.9808 40.0002C24.8272 40.0002 32.0565 36.3301 32.0565 30.1946C32.0565 25.2137 27.2899 22.4346 20.2711 21.5421C25.8232 20.2844 29.3849 17.5053 29.3849 13.1533C29.3849 7.01776 22.1571 3.71436 12.3092 3.71436C7.12334 3.71436 0 6.07372 0 15.0929V39.6335H9.58605C11.2617 39.8427 13.0948 40.0002 14.9808 40.0002ZM12.1003 21.333V22.4862C14.6145 22.4862 17.495 24.1651 19.8518 27.9398C22.5749 32.3978 22.0512 36.959 20.0607 38.0606C17.442 39.4759 14.5615 38.4273 11.4706 34.8618V19.8131C11.4706 13.0487 5.13286 13.3624 3.82353 10.2681C3.2998 8.95738 3.71908 6.80863 7.1763 6.80863C9.95237 6.80863 13.4611 8.27697 15.8708 11.3182C20.6903 17.3477 17.8613 21.2284 12.1003 21.333Z" fill="#333333"/>
<path d="M44.9415 26.8396C63.7973 22.224 63.3795 10.8984 49.5506 10.8984C40.1749 10.8984 33.8887 16.8764 33.8887 25.4228C33.8887 34.0223 40.1749 40.0002 49.5506 40.0002C57.5125 40.0002 60.8123 37.3257 65.264 32.2402C64.9506 31.925 64.6358 31.5583 64.2695 31.2432C58.2451 37.903 51.6985 37.5363 45.6226 27.9398C45.3607 27.573 45.1504 27.2063 44.9415 26.8396ZM49.3932 16.8764C52.1178 21.2799 48.6605 24.847 44.2603 25.738C40.8031 19.8131 39.3893 15.355 42.0609 13.6245C44.0514 12.3668 47.1938 13.3108 49.3932 16.8764Z" fill="#333333"/>
<path d="M61.8071 11.2652V39.6335H73.2777V18.6584C73.3307 16.0899 73.6455 14.1488 75.2682 13.52C77.678 12.6289 79.8258 14.0443 78.2017 24.7939C77.5205 29.4081 77.0498 33.9177 79.564 37.1165C83.492 42.0974 89.9356 39.6865 93.8106 36.2255L93.2354 35.1769C88.7307 37.7984 88.8867 31.6629 89.9356 25.1091C90.3019 22.8013 90.249 20.6511 89.7782 18.763C89.5678 16.4036 89.9871 14.3594 92.2395 13.52C94.6492 12.6289 96.7971 14.0443 95.1729 24.7939C94.4918 29.4081 93.9681 33.9177 96.4823 37.1165C100.934 42.6747 109.996 38.6379 113.506 34.0223L112.719 33.1843C111.044 34.8617 109.315 35.2284 107.953 34.0223C105.911 32.2402 106.226 29.3035 106.854 25.1091C108.163 16.9279 104.391 10.8984 95.3304 10.8984C92.0305 10.8984 89.9356 12.9956 87.4199 14.2534C85.4824 12.1562 82.4445 10.8984 78.4121 10.8984C74.1163 10.8984 71.8639 14.411 68.2493 15.1974C65.3688 15.5656 63.1165 15.2504 63.1165 11.2652H61.8071Z" fill="#333333"/>
<mask id="mask0_767_743" style="mask-type:luminance" maskUnits="userSpaceOnUse" x="36" y="0" width="15" height="14">
<path d="M36.8828 0H50.8176V13.573H36.8828V0Z" fill="white"/>
</mask>
<g mask="url(#mask0_767_743)">
<mask id="mask1_767_743" style="mask-type:luminance" maskUnits="userSpaceOnUse" x="36" y="-1" width="15" height="15">
<path d="M36.9771 0.997L48.3873 -0.988281L50.5161 11.2695L39.1058 13.2548L36.9771 0.997Z" fill="white"/>
</mask>
<g mask="url(#mask1_767_743)">
<mask id="mask2_767_743" style="mask-type:luminance" maskUnits="userSpaceOnUse" x="36" y="-2" width="15" height="16">
<path d="M48.63 -1.03076L36.6636 1.05172L38.8394 13.5893L50.8058 11.5069L48.63 -1.03076Z" fill="white"/>
</mask>
<g mask="url(#mask2_767_743)">
<mask id="mask3_767_743" style="mask-type:luminance" maskUnits="userSpaceOnUse" x="13" y="-5" width="64" height="41">
<path d="M70.9105 -4.90869L13.584 5.06926L18.9052 35.713L76.2331 25.7365L70.9105 -4.90869Z" fill="white"/>
</mask>
<g mask="url(#mask3_767_743)">
<path d="M45.0107 13.523L72.2345 21.9958C73.2334 22.3065 73.4364 23.3021 72.6699 24.0208L72.6685 24.0194C72.3625 24.2815 72.0108 24.4435 71.6122 24.5054L23.6701 32.8486C21.9577 33.1475 21.0324 31.6055 22.2387 30.6969L45.0107 13.523ZM46.654 4.27699C46.882 5.56124 48.8475 5.23723 48.6092 3.91175C48.1075 1.10614 44.8092 -0.369566 42.6892 0.131173C40.3722 0.577419 38.9863 2.1356 38.4862 3.93679C37.5873 7.17833 39.6219 10.7969 43.5396 10.8956L43.7308 11.9957L21.0441 29.1048C18.1533 31.286 20.2541 35.4715 24.0129 34.8176L71.9549 26.4744C72.7302 26.3448 73.4129 26.0194 74.0028 25.498L74.0013 25.4965C75.8785 23.8043 75.3607 20.8838 72.8229 20.0944C63.7827 17.2815 54.741 14.467 45.6992 11.6526L45.3594 9.69234H45.3565C45.3344 9.56862 45.2917 9.45228 45.2255 9.34476C45.1593 9.23578 45.0769 9.14447 44.9754 9.06789C44.8739 8.9913 44.7636 8.93681 44.6415 8.90294C44.5194 8.86906 44.3958 8.85875 44.2707 8.87201C39.4115 9.386 38.9084 2.81307 43.1306 2.07816C44.434 1.85136 46.376 2.72618 46.654 4.27699Z" fill="#333333"/>
</g>
</g>
</g>
</g>
</svg>
